<svg width="296" height="197" viewBox="0 0 296 197" fill="none" xmlns="http://www.w3.org/2000/svg">
<g clip-path="url(#clip0_3761_13083)">
<path d="M158.914 182.396C171.451 180.187 180.786 173.685 179.767 167.88C178.742 162.075 167.75 159.163 155.213 161.372C142.676 163.581 133.341 170.083 134.36 175.888C135.386 181.692 146.378 184.605 158.914 182.396Z" fill="black" stroke="black" stroke-width="0.659956" stroke-miterlimit="10"/>
<path d="M121.62 71.1428C114.559 71.1428 108.826 75.8696 108.826 81.6942C108.826 87.5188 114.559 92.2456 121.62 92.2456V71.1362V71.1428Z" fill="#B45AF2" stroke="black" stroke-width="0.659956" stroke-miterlimit="10"/>
<path d="M147.127 45.3398C151.229 45.3398 154.562 42.0133 154.562 37.9045C154.562 33.7957 151.236 30.4692 147.127 30.4692C143.018 30.4692 139.692 33.7957 139.692 37.9045C139.692 42.0133 143.018 45.3398 147.127 45.3398Z" fill="white" stroke="black" stroke-width="0.659956" stroke-linecap="round" stroke-linejoin="round"/>
<path d="M161.662 31.0018C160.433 28.1618 158.395 25.7492 155.811 24.053C153.228 22.3569 150.197 21.4497 147.107 21.4497C144.017 21.4497 140.987 22.3504 138.403 24.053C135.82 25.7492 133.782 28.1618 132.552 31.0018" stroke="black" stroke-width="0.659956" stroke-linecap="round" stroke-linejoin="round"/>
<path d="M168.96 27.8396C167.112 23.5862 164.062 19.9704 160.183 17.4263C156.304 14.8821 151.768 13.5278 147.134 13.5278C142.499 13.5278 137.963 14.8821 134.084 17.4263C130.205 19.9704 127.155 23.5862 125.308 27.8396" stroke="black" stroke-width="0.659956" stroke-linecap="round" stroke-linejoin="round"/>
<path d="M152.367 43.1836C153.392 42.1646 154.096 40.8695 154.391 39.4561C154.687 38.0427 154.569 36.5767 154.043 35.229C153.517 33.8813 152.61 32.7177 151.44 31.8828C150.263 31.0413 148.869 30.568 147.423 30.5088C148.107 30.8572 148.731 31.3108 149.27 31.8565C150.329 32.9149 151.045 34.2692 151.321 35.7418C151.597 37.2143 151.42 38.733 150.815 40.1069C150.21 41.4809 149.204 42.638 147.936 43.4268C146.66 44.2157 145.181 44.6036 143.682 44.5379C145.082 45.261 146.68 45.524 148.245 45.2807C149.803 45.0375 151.249 44.3078 152.367 43.1902V43.1836Z" fill="black" stroke="black" stroke-width="0.659956" stroke-linecap="round" stroke-linejoin="round"/>
<path d="M156.521 114.939H137.766C125.748 114.939 114.349 125.346 116.991 137.068C119.187 146.83 127.01 165.455 131.829 174.231C138.41 186.248 156.968 186.064 163.299 173.902C167.855 165.165 175.211 146.699 177.295 137.068C179.84 125.326 168.539 114.939 156.528 114.939H156.521Z" fill="#B45AF2" stroke="black" stroke-width="0.659956" stroke-miterlimit="10"/>
<path d="M147.14 55.6675V45.3594" stroke="black" stroke-width="0.659956" stroke-miterlimit="10"/>
<path d="M147.14 107.728C164.568 107.728 178.696 96.072 178.696 81.7011C178.696 67.3301 164.568 55.6743 147.14 55.6743C129.712 55.6743 115.585 67.3301 115.585 81.7011C115.585 96.072 129.712 107.728 147.14 107.728Z" fill="#B45AF2" stroke="black" stroke-width="0.659956" stroke-miterlimit="10"/>
<path d="M176.217 71.5701C173.423 66.1136 168.44 61.617 162.195 58.8164C168.703 63.221 173.147 71.8396 173.147 81.7008C173.147 91.5619 168.677 100.18 162.169 104.592C168.434 101.785 173.417 97.2813 176.191 91.8314C181.523 90.5626 185.428 86.5064 185.428 81.7008C185.428 76.8951 181.549 72.8455 176.217 71.5767V71.5701Z" fill="black" stroke="black" stroke-width="0.659956" stroke-miterlimit="10"/>
<path d="M163.036 77.6382H131.244C127.707 77.6382 124.841 80.5045 124.841 84.0413V84.3109C124.841 87.8477 127.707 90.714 131.244 90.714H163.036C166.573 90.714 169.439 87.8477 169.439 84.3109V84.0413C169.439 80.5045 166.573 77.6382 163.036 77.6382Z" fill="white" stroke="black" stroke-width="0.659956" stroke-miterlimit="10"/>
<path d="M126.708 86.4343V85.2049C126.708 83.4694 127.398 81.8061 128.621 80.5768C129.85 79.3474 131.514 78.6571 133.249 78.6571H166.402C165.35 77.9932 164.134 77.6513 162.898 77.6579H131.382C130.008 77.6382 128.66 78.0589 127.543 78.8544C126.419 79.6498 125.577 80.7806 125.137 82.0822C124.696 83.3839 124.677 84.7908 125.084 86.1056C125.492 87.4204 126.307 88.5709 127.405 89.3926C126.945 88.4788 126.701 87.4664 126.701 86.4409L126.708 86.4343Z" fill="black" stroke="black" stroke-width="0.659956" stroke-linecap="round" stroke-linejoin="round"/>
<path d="M165.324 116.8C171.392 131.598 166.593 165.251 158.125 179.819C160.295 178.287 162.07 176.256 163.293 173.896C167.848 165.159 175.205 146.692 177.289 137.061C179.195 128.305 173.377 120.304 165.317 116.793L165.324 116.8Z" fill="black" stroke="black" stroke-width="0.659956" stroke-miterlimit="10"/>
<path d="M201.416 43.9326H223.807C230.296 43.9326 235.824 48.9815 236.055 55.4701C236.114 57.0808 235.844 58.6783 235.272 60.1837C234.7 61.6892 233.826 63.0566 232.708 64.2136C231.591 65.3707 230.256 66.291 228.77 66.9222C227.291 67.5533 225.7 67.8754 224.09 67.8754H214.985L202.408 74.9031C202.316 74.9557 202.218 74.982 202.113 74.9754C202.007 74.9754 201.909 74.9425 201.817 74.8965C201.725 74.8439 201.652 74.7716 201.6 74.6796C201.547 74.5875 201.521 74.4889 201.521 74.3837V67.8754H201.416C198.24 67.8754 195.197 66.6132 192.948 64.3714C190.7 62.1231 189.444 59.0793 189.444 55.904C189.444 52.7287 190.707 49.6849 192.948 47.4366C195.19 45.1883 198.24 43.9326 201.416 43.9326Z" fill="black" stroke="black" stroke-width="0.659956" stroke-miterlimit="10"/>
<path d="M201.416 38.8183H223.892C230.381 38.8183 235.91 43.8672 236.14 50.3558C236.199 51.9665 235.93 53.564 235.358 55.0694C234.786 56.5749 233.911 57.9423 232.794 59.0993C231.676 60.2564 230.342 61.1768 228.856 61.8079C227.377 62.439 225.786 62.7611 224.175 62.7611H214.971L202.395 69.7888C202.303 69.8414 202.205 69.8677 202.099 69.8611C201.994 69.8611 201.896 69.8282 201.804 69.7822C201.712 69.7296 201.639 69.6573 201.587 69.5653C201.534 69.4732 201.508 69.3746 201.508 69.2694V62.7611H201.403C199.831 62.7611 198.273 62.4521 196.82 61.8473C195.368 61.2425 194.046 60.3616 192.935 59.2505C191.824 58.1395 190.943 56.8181 190.338 55.3653C189.734 53.9124 189.425 52.3543 189.425 50.7831C189.425 49.2119 189.734 47.6539 190.338 46.201C190.943 44.7481 191.824 43.4267 192.935 42.3157C194.046 41.2047 195.368 40.3238 196.82 39.719C198.273 39.1142 199.831 38.8052 201.403 38.8052H201.416V38.8183Z" fill="#00ED64" stroke="black" stroke-width="0.659956" stroke-miterlimit="10"/>
<path d="M228.264 50.7896H212.782" stroke="black" stroke-width="0.659956" stroke-linecap="round" stroke-linejoin="round"/>
<path d="M98.9062 108.97L107.209 109.825V114.21C107.209 114.341 107.183 114.48 107.13 114.604C107.078 114.729 107.005 114.841 106.907 114.933C106.815 115.025 106.696 115.104 106.572 115.157C106.447 115.209 106.315 115.236 106.177 115.236H71.4266C69.1651 115.255 66.943 114.611 65.0497 113.368C63.1564 112.133 61.6706 110.358 60.7766 108.28C59.7576 105.992 59.4683 103.448 59.9548 100.989C60.4413 98.5308 61.6706 96.289 63.4851 94.5601" fill="black"/>
<path d="M98.9062 108.97L107.209 109.825V114.21C107.209 114.341 107.183 114.48 107.13 114.604C107.078 114.729 107.005 114.841 106.907 114.933C106.815 115.025 106.696 115.104 106.572 115.157C106.447 115.209 106.315 115.236 106.177 115.236H71.4266C69.1651 115.255 66.943 114.611 65.0497 113.368C63.1564 112.133 61.6706 110.358 60.7766 108.28C59.7576 105.992 59.4683 103.448 59.9548 100.989C60.4413 98.5308 61.6706 96.289 63.4851 94.5601" stroke="black" stroke-width="0.659956" stroke-miterlimit="10"/>
<path d="M71.7289 86.1714H87.6382C93.877 86.1714 99.294 90.8193 99.866 97.0318C100.057 99.0566 99.7214 101.088 98.9062 102.948L106.966 109.062C107.065 109.135 107.137 109.24 107.176 109.358C107.216 109.476 107.209 109.608 107.176 109.726C107.137 109.845 107.058 109.95 106.959 110.022C106.861 110.094 106.736 110.134 106.611 110.127H72.0314C65.5427 110.127 60.0139 105.078 59.7839 98.5898C59.7247 96.9857 59.9877 95.3817 60.5596 93.8762C61.1315 92.3773 61.9993 91.0033 63.1169 89.8463C64.2345 88.6893 65.569 87.7623 67.0482 87.1312C68.5274 86.5001 70.1183 86.1714 71.7289 86.1714Z" fill="#00ED64" stroke="black" stroke-width="0.659956" stroke-linejoin="round"/>
<path d="M88.6375 98.1426H70.9795" stroke="black" stroke-width="0.659956" stroke-miterlimit="10"/>
<path d="M199.969 55.4308L207.451 50.7895L199.969 46.1416" stroke="black" stroke-width="0.659956" stroke-linecap="round" stroke-linejoin="round"/>
</g>
<defs>
<clipPath id="clip0_3761_13083">
<rect width="177.079" height="170.269" fill="white" transform="translate(59.396 13.1992)"/>
</clipPath>
</defs>
</svg>
