<?xml version="1.0" encoding="utf-8"?>
<svg xmlns="http://www.w3.org/2000/svg" width="56" height="66" viewBox="0 0 56 66" fill="none">
<path d="M55 17C55 17 55 62.8998 54.8875 62.7893C54.8875 64.0052 53.875 65 52.6375 65H3.25C2.0125 65 1 64.0052 1 62.7893V3.21071C1 1.99482 2.0125 1 3.25 1H39" stroke="white" stroke-miterlimit="10" stroke-linecap="round" stroke-linejoin="round"/>
<path d="M39 15V1L55 17H41C39.8954 17 39 16.1046 39 15Z" fill="#00ED64"/>
<path d="M39 1L39.3536 0.646447C39.2106 0.503448 38.9955 0.46067 38.8087 0.53806C38.6218 0.615451 38.5 0.797769 38.5 1H39ZM55 17V17.5C55.2022 17.5 55.3846 17.3782 55.4619 17.1913C55.5393 17.0045 55.4966 16.7894 55.3536 16.6464L55 17ZM38.5 1V15H39.5V1H38.5ZM41 17.5H55V16.5H41V17.5ZM55.3536 16.6464L39.3536 0.646447L38.6464 1.35355L54.6464 17.3536L55.3536 16.6464ZM38.5 15C38.5 16.3807 39.6193 17.5 41 17.5V16.5C40.1716 16.5 39.5 15.8284 39.5 15H38.5Z" fill="white"/>
<path d="M28 32.5H27.5V33.5H28V32.5ZM45 33.5H45.5V32.5H45V33.5ZM16.5 33V33.5H17.5V33H16.5ZM17.5 21V20.5H16.5V21H17.5ZM10.5 24V24.5H11.5V24H10.5ZM11 21V20.5C10.7239 20.5 10.5 20.7239 10.5 21H11ZM23 21H23.5C23.5 20.7239 23.2761 20.5 23 20.5V21ZM22.5 24V24.5H23.5V24H22.5ZM14 32.5H13.5V33.5H14V32.5ZM21 33.5H21.5V32.5H21V33.5ZM11 42.5H10.5V43.5H11V42.5ZM45 43.5H45.5V42.5H45V43.5ZM11 52.5H10.5V53.5H11V52.5ZM45 53.5H45.5V52.5H45V53.5ZM28 33.5L45 33.5V32.5L28 32.5V33.5ZM17.5 33V21H16.5V33H17.5ZM11.5 24V21H10.5V24H11.5ZM11 21.5H23V20.5H11V21.5ZM22.5 21V24H23.5V21H22.5ZM14 33.5H21V32.5H14V33.5ZM11 43.5H45V42.5H11V43.5ZM11 53.5H45V52.5H11V53.5Z" fill="white"/>
</svg>