<svg width="696" height="468" viewBox="0 0 696 468" fill="none" xmlns="http://www.w3.org/2000/svg">
<path d="M219.178 363.336C219.174 346.187 212.368 329.741 200.256 317.614C188.145 305.487 171.719 298.671 154.589 298.664C137.46 298.659 121.035 291.845 108.923 279.719C96.8108 267.593 90.0045 251.149 90 234V104.664C90 87.5139 96.8049 71.0664 108.918 58.9396C121.031 46.8128 137.459 40 154.589 40C171.719 40 188.148 46.8128 200.261 58.9396C212.374 71.0664 219.178 87.5139 219.178 104.664C219.185 121.814 225.993 138.26 238.106 150.387C250.219 162.514 266.646 169.329 283.776 169.336H412.955C430.084 169.341 446.511 176.155 458.624 188.28C470.737 200.406 477.546 216.851 477.552 234C477.557 251.149 484.363 267.593 496.475 279.719C508.587 291.845 525.013 298.659 542.142 298.664C559.145 298.859 575.386 305.758 587.34 317.864C599.295 329.971 606 346.308 606 363.332C606 380.356 599.295 396.693 587.34 408.8C575.386 420.906 559.145 427.805 542.142 428H283.776C266.647 427.993 250.222 421.179 238.109 409.053C225.996 396.928 219.187 380.485 219.178 363.336Z" fill="#E3FCF7"/>
<g clip-path="url(#clip0_3728_7675)">
<path d="M283.489 340.091L189.006 369.948L148.707 242.122L217.154 220.492L226.583 252.73L251.768 239.491L283.489 340.091Z" fill="#F2C5EE" stroke="black" stroke-linecap="round" stroke-linejoin="round"/>
<path d="M217.156 220.492L251.77 239.491L226.585 252.73L217.156 220.492Z" fill="#F9EBFF" stroke="black" stroke-linecap="round" stroke-linejoin="round"/>
<path d="M233.516 249.084L235.508 255.953L251.772 239.49L233.516 249.084Z" fill="#00202D"/>
<path d="M251.355 357.465V375.243C251.355 394.199 289.155 409.57 335.791 409.57C382.428 409.57 420.227 394.199 420.227 375.243V357.465H251.355Z" fill="black" stroke="black" stroke-linecap="round" stroke-linejoin="round"/>
<path d="M251.355 300.477V366.758C251.355 385.714 289.155 401.085 335.791 401.085C382.428 401.085 420.227 385.714 420.227 366.758V300.477C420.227 281.521 382.428 266.158 335.791 266.158C289.155 266.158 251.355 281.521 251.355 300.477Z" fill="#00ED64" stroke="black" stroke-linecap="round" stroke-linejoin="round"/>
<path d="M420.227 300.477V366.758C420.227 385.714 382.427 401.085 335.791 401.085C289.155 401.085 251.355 385.714 251.355 366.758V300.477" stroke="black" stroke-linecap="round" stroke-linejoin="round"/>
<path d="M420.227 334.348C420.227 353.304 382.427 368.666 335.791 368.666C289.155 368.666 251.355 353.304 251.355 334.348" stroke="black" stroke-linecap="round" stroke-linejoin="round"/>
<path d="M403.793 280.137V387.09C414.123 381.399 420.228 374.367 420.228 366.75V300.485C420.228 292.877 414.123 285.836 403.793 280.145V280.137Z" fill="black" stroke="black" stroke-linecap="round" stroke-linejoin="round"/>
<path d="M335.784 334.812C382.42 334.812 420.22 319.45 420.22 300.485C420.22 281.521 382.411 266.158 335.784 266.158C289.156 266.158 251.348 281.529 251.348 300.485C251.348 319.441 289.148 334.812 335.784 334.812Z" fill="white" stroke="black" stroke-linecap="round" stroke-linejoin="round"/>
<path d="M320.164 290.761V303.012C320.164 306.511 327.154 309.365 335.792 309.365C344.431 309.365 351.421 306.519 351.421 303.012V290.761C351.421 287.262 344.431 284.408 335.792 284.408C327.154 284.408 320.164 287.254 320.164 290.761Z" fill="#B1FF05" stroke="black" stroke-linecap="round" stroke-linejoin="round"/>
<path d="M343.296 285.191L340.316 309.108C346.722 308.317 351.411 305.893 351.411 303.03V290.779C351.411 288.364 348.131 286.266 343.288 285.191H343.296Z" fill="black" stroke="black" stroke-linecap="round" stroke-linejoin="round"/>
<path d="M420.227 202.954C420.227 183.998 382.427 168.627 335.791 168.627C289.155 168.627 251.355 183.998 251.355 202.954" stroke="black" stroke-linecap="round" stroke-linejoin="round"/>
<path d="M251.355 197.116V263.389C251.355 282.345 289.155 297.716 335.791 297.716C382.428 297.716 420.227 282.345 420.227 263.389V197.116C420.227 178.16 382.428 162.789 335.791 162.789C289.155 162.789 251.355 178.16 251.355 197.116Z" fill="#00ED64" stroke="black" stroke-linecap="round" stroke-linejoin="round"/>
<path d="M403.793 176.768V283.738C414.123 278.047 420.228 271.006 420.228 263.389V197.116C420.228 189.499 414.123 182.459 403.793 176.768Z" fill="black" stroke="black" stroke-linecap="round" stroke-linejoin="round"/>
<path d="M335.784 231.443C382.42 231.443 420.22 216.081 420.22 197.116C420.22 178.152 382.411 162.789 335.784 162.789C289.156 162.789 251.348 178.16 251.348 197.116C251.348 216.072 289.148 231.443 335.784 231.443Z" fill="white" stroke="black" stroke-linecap="round" stroke-linejoin="round"/>
<path d="M420.227 197.117V263.39C420.227 282.346 382.427 297.717 335.791 297.717C289.155 297.717 251.355 282.346 251.355 263.39V197.117" stroke="black" stroke-linecap="round" stroke-linejoin="round"/>
<path d="M320.164 187.394V199.645C320.164 203.143 327.154 205.998 335.792 205.998C344.431 205.998 351.421 203.161 351.421 199.645V187.394C351.421 183.895 344.431 181.041 335.792 181.041C327.154 181.041 320.164 183.878 320.164 187.394Z" fill="#B1FF05" stroke="black" stroke-linecap="round" stroke-linejoin="round"/>
<path d="M343.296 181.822L340.316 205.739C346.722 204.948 351.411 202.523 351.411 199.652V187.402C351.411 184.986 348.131 182.897 343.288 181.822H343.296Z" fill="black" stroke="black" stroke-linecap="round" stroke-linejoin="round"/>
<path d="M251.355 93.7568V160.03C251.355 178.986 289.155 194.348 335.791 194.348C382.428 194.348 420.227 178.986 420.227 160.03V93.7568C420.227 74.8008 382.428 59.4297 335.791 59.4297C289.155 59.4297 251.355 74.8008 251.355 93.7568Z" fill="#00ED64" stroke="black" stroke-linecap="round" stroke-linejoin="round"/>
<path d="M420.227 93.7568C420.227 74.8008 382.427 59.4297 335.791 59.4297C289.155 59.4297 251.355 74.8008 251.355 93.7568" stroke="black" stroke-linecap="round" stroke-linejoin="round"/>
<path d="M420.227 93.748V160.03C420.227 178.986 382.427 194.348 335.791 194.348C289.155 194.348 251.355 178.986 251.355 160.03V93.748" stroke="black" stroke-linecap="round" stroke-linejoin="round"/>
<path d="M420.227 126.889C420.227 145.845 382.427 161.207 335.791 161.207C289.155 161.207 251.355 145.845 251.355 126.889" stroke="black" stroke-linecap="round" stroke-linejoin="round"/>
<path d="M420.227 230.248C420.227 249.204 382.427 264.575 335.791 264.575C289.155 264.575 251.355 249.204 251.355 230.248" stroke="black" stroke-linecap="round" stroke-linejoin="round"/>
<path d="M403.793 73.4082V180.37C414.123 174.679 420.228 167.638 420.228 160.03V93.7569C420.228 86.1487 414.123 79.1079 403.793 73.4168V73.4082Z" fill="black" stroke="black" stroke-linecap="round" stroke-linejoin="round"/>
<path d="M335.784 128.075C382.42 128.075 420.22 112.704 420.22 93.7482C420.22 74.7922 382.42 59.4297 335.784 59.4297C289.148 59.4297 251.348 74.8008 251.348 93.7568C251.348 112.713 289.148 128.084 335.784 128.084V128.075Z" fill="white" stroke="black" stroke-linecap="round" stroke-linejoin="round"/>
<path d="M511.801 297.389L400.016 270.12L436.82 118.885L517.804 138.64L507.8 176.337L540.765 178.366L511.801 297.389Z" fill="#F2C5EE" stroke="black" stroke-linecap="round" stroke-linejoin="round"/>
<path d="M517.805 138.641L540.766 178.367L507.801 176.338L517.805 138.641Z" fill="#F9EBFF" stroke="black" stroke-linecap="round" stroke-linejoin="round"/>
<path d="M516.869 176.896L514.723 184.917L540.767 178.367L516.869 176.896Z" fill="black"/>
<path d="M521.661 257.32L512.078 296.703L504.29 294.803L504.891 283.206C505.131 278.4 505.938 274.729 507.312 272.176C508.884 269.425 511.168 267.155 513.916 265.591C510.73 263.536 508.54 261.395 507.364 259.186C506.204 256.994 505.449 254.621 505.122 252.162C504.805 249.704 504.539 244.391 504.332 236.232C504.264 233.267 503.749 231.281 502.77 230.258C501.791 229.235 498.854 228.736 493.934 228.745V216.537H496.647C501.379 216.537 505.028 216.95 507.604 217.775C510.051 218.514 512.241 219.924 513.933 221.833C515.616 223.81 516.681 226.226 517.015 228.805C517.445 231.573 517.651 235.846 517.634 241.597C517.634 249.153 518.561 254.019 520.442 256.169C520.811 256.598 521.223 256.985 521.67 257.329L521.661 257.32Z" fill="black" stroke="black" stroke-linecap="round" stroke-linejoin="round"/>
<path d="M601.88 192.828C599.698 195.372 598.136 198.39 597.328 201.648C596.53 204.863 596.143 212.205 596.143 223.682C596.143 234.092 595.044 241.64 592.846 246.309C590.734 250.916 586.93 254.527 582.224 256.393C577.338 258.43 570.391 259.453 561.392 259.453H557.004V239.216C563.865 239.216 568.253 238.614 570.159 237.402C571.104 236.809 571.911 236.027 572.538 235.098C573.165 234.17 573.585 233.13 573.783 232.029L575.054 207.468C575.449 199.533 576.78 193.455 579.055 189.234C581.657 184.686 585.427 180.921 589.987 178.342C584.697 174.946 581.082 171.413 579.15 167.751C577.235 164.131 575.973 160.203 575.432 156.136C574.908 152.061 574.47 143.276 574.126 129.787C574.015 124.895 573.113 121.637 571.55 119.918C569.996 118.19 565.067 117.382 556.918 117.382V97.1621H561.383C569.197 97.1621 575.243 97.8413 579.519 99.1996C583.555 100.429 587.179 102.75 589.978 105.914C592.752 109.18 594.512 113.187 595.07 117.433C595.894 124.448 596.238 131.515 596.092 138.582C596.092 151.081 597.638 159.119 600.72 162.696C603.803 166.272 608.423 168.086 614.563 168.138V188.4C608.346 188.701 604.121 190.171 601.871 192.819L601.88 192.828Z" fill="#B45AF2" stroke="black" stroke-linecap="round" stroke-linejoin="round"/>
<path d="M98.4062 276.337C100.965 278.22 103.043 280.67 104.486 283.499C105.903 286.293 107.835 292.981 110.282 303.564C112.506 313.166 115.134 319.889 118.156 323.723C121.084 327.514 125.369 330.033 130.109 330.755C135.047 331.589 141.668 331.039 149.971 329.113L154.016 328.176L149.696 309.513C143.368 310.983 139.194 311.361 137.177 310.656C136.18 310.312 135.262 309.762 134.489 309.04C133.716 308.318 133.098 307.449 132.686 306.478L126.271 284.1C124.219 276.87 121.686 271.549 118.689 268.136C115.323 264.5 111.038 261.835 106.28 260.433C110.437 256.169 113.013 252.137 114.017 248.346C115.013 244.598 115.331 240.704 114.962 236.844C114.576 232.975 113.107 224.782 110.54 212.265C109.595 207.735 109.741 204.537 110.806 202.611C111.871 200.685 116.241 198.88 123.764 197.135L119.444 178.488L115.323 179.443C108.118 181.119 102.683 183.036 99.033 185.202C95.5725 187.205 92.7302 190.12 90.8153 193.636C88.9605 197.247 88.1791 201.313 88.5827 205.353C89.3211 211.999 90.5147 218.592 92.1549 225.074C94.8254 236.603 95.1174 244.349 93.0307 248.303C90.9441 252.266 87.0799 254.923 81.4297 256.281L85.7575 274.971C91.5538 273.913 95.77 274.369 98.4062 276.329V276.337Z" fill="#B45AF2" stroke="black" stroke-linecap="round" stroke-linejoin="round"/>
<path d="M197.647 310.492C199.098 311.558 200.283 312.951 201.099 314.558C201.906 316.14 202.997 319.94 204.388 325.941C205.65 331.391 207.136 335.199 208.853 337.383C210.519 339.532 212.949 340.968 215.637 341.372C218.436 341.845 222.197 341.535 226.912 340.444L229.204 339.911L226.757 329.319C223.168 330.153 220.798 330.368 219.656 329.964C219.089 329.766 218.574 329.457 218.136 329.053C217.698 328.64 217.346 328.15 217.114 327.6L213.473 314.902C212.305 310.802 210.871 307.784 209.171 305.85C207.265 303.787 204.826 302.274 202.13 301.474C204.491 299.058 205.951 296.772 206.518 294.614C207.084 292.49 207.265 290.281 207.059 288.089C206.844 285.888 206.002 281.246 204.551 274.145C204.019 271.574 204.096 269.76 204.706 268.669C205.315 267.577 207.788 266.554 212.056 265.565L209.609 254.982L207.273 255.524C203.186 256.47 200.103 257.561 198.034 258.791C196.067 259.926 194.461 261.576 193.371 263.571C192.315 265.617 191.877 267.929 192.109 270.216C192.529 273.99 193.208 277.73 194.135 281.409C195.646 287.951 195.818 292.344 194.633 294.588C193.448 296.832 191.258 298.345 188.047 299.119L190.503 309.718C193.792 309.117 196.179 309.375 197.681 310.492H197.647Z" fill="black" stroke="black" stroke-linecap="round" stroke-linejoin="round"/>
<path d="M452.595 322.088L463.295 328.974L473.994 335.869L462.685 341.697L451.367 347.526L451.985 334.811L452.595 322.088Z" fill="white" stroke="black" stroke-linecap="round" stroke-linejoin="round"/>
<path d="M459.13 334.795L451.367 347.527L473.994 335.87L459.13 334.795Z" fill="black"/>
<path d="M459.128 334.794L452.594 322.088" stroke="black" stroke-linecap="round" stroke-linejoin="round"/>
<path d="M196.976 166.52C203.862 166.52 209.444 160.931 209.444 154.037C209.444 147.143 203.862 141.555 196.976 141.555C190.09 141.555 184.508 147.143 184.508 154.037C184.508 160.931 190.09 166.52 196.976 166.52Z" fill="white" stroke="black" stroke-linecap="round" stroke-linejoin="round"/>
<path d="M189.961 164.353C191.962 165.72 194.375 166.52 196.977 166.52C203.863 166.52 209.445 160.932 209.445 154.037C209.445 151.432 208.646 149.017 207.281 147.014C202.884 154.011 196.951 159.952 189.961 164.353Z" fill="black" stroke="black" stroke-linecap="round" stroke-linejoin="round"/>
<path d="M477.592 66.0488H463.192L455.996 78.5314L463.192 91.0054H477.592L484.788 78.5314L477.592 66.0488Z" fill="white" stroke="black" stroke-linecap="round" stroke-linejoin="round"/>
<path d="M463.192 91.0053H477.592L470.396 78.5312H455.996L463.192 91.0053Z" fill="black" stroke="black" stroke-width="0.25" stroke-linecap="round" stroke-linejoin="round"/>
<path d="M477.59 66.0488L470.395 78.5314" stroke="black" stroke-linecap="round" stroke-linejoin="round"/>
</g>
<defs>
<clipPath id="clip0_3728_7675">
<rect width="534" height="351" fill="white" transform="translate(81 59)"/>
</clipPath>
</defs>
</svg>
