<svg width="696" height="464" viewBox="0 0 696 464" fill="none" xmlns="http://www.w3.org/2000/svg">
<path d="M530.822 98.6406V188.365C530.822 213.128 510.723 233.227 485.957 233.227C461.191 233.227 441.092 253.325 441.092 278.089C441.092 302.852 420.992 322.951 396.227 322.951C371.461 322.951 351.361 343.049 351.361 367.813C351.361 392.576 331.262 412.675 306.496 412.675H216.766C192 412.675 171.9 392.576 171.9 367.813V278.089C171.9 253.325 192 233.227 216.766 233.227H261.631C311.162 233.227 351.361 193.03 351.361 143.503V98.6406C351.361 73.8767 371.461 53.7786 396.227 53.7786H485.957C510.723 53.7786 530.822 73.8767 530.822 98.6406Z" fill="#E3FCF7"/>
<mask id="mask0_601_750" style="mask-type:luminance" maskUnits="userSpaceOnUse" x="110" y="45" width="476" height="375">
<path d="M585.627 45.0603H110.188V419.939H585.627V45.0603Z" fill="white"/>
</mask>
<g mask="url(#mask0_601_750)">
<path d="M518.143 113.147C521.499 113.147 524.219 110.426 524.219 107.069C524.219 103.713 521.499 100.992 518.143 100.992C514.788 100.992 512.066 103.713 512.066 107.069C512.066 110.426 514.788 113.147 518.143 113.147Z" fill="#00ED64" stroke="black" stroke-linecap="round" stroke-linejoin="round"/>
<path d="M208.599 145.77L201.779 156.069C197.343 162.762 194.98 170.62 194.98 178.653V270.37C194.98 280.496 203.181 288.7 213.304 288.7H305.46C313.208 288.7 320.784 286.499 327.325 282.353L339.454 274.667" fill="black"/>
<path d="M208.599 145.77L201.779 156.069C197.343 162.762 194.98 170.62 194.98 178.653V270.37C194.98 280.496 203.181 288.7 213.304 288.7H305.46C313.208 288.7 320.784 286.499 327.325 282.353L339.454 274.667" stroke="black" stroke-miterlimit="10"/>
<path d="M333.134 139.173H216.222C209.665 139.173 204.351 144.49 204.351 151.048V267.994C204.351 274.552 209.665 279.869 216.222 279.869H333.134C339.691 279.869 345.005 274.552 345.005 267.994V151.048C345.005 144.49 339.691 139.173 333.134 139.173Z" fill="#00ED64" stroke="black" stroke-linecap="round" stroke-linejoin="round"/>
<path d="M274.674 139.174V63.6177" stroke="black" stroke-linecap="round" stroke-linejoin="round"/>
<path d="M274.672 63.6278C279.649 63.6278 283.683 59.592 283.683 54.6137C283.683 49.6354 279.649 45.5996 274.672 45.5996C269.695 45.5996 265.66 49.6354 265.66 54.6137C265.66 59.592 269.695 63.6278 274.672 63.6278Z" fill="#00ED64" stroke="black" stroke-linecap="round" stroke-linejoin="round"/>
<path d="M313.205 139.174V89.2456" stroke="black" stroke-linecap="round" stroke-linejoin="round"/>
<path d="M313.202 89.246C318.179 89.246 322.214 85.2102 322.214 80.2319C322.214 75.2534 318.179 71.2178 313.202 71.2178C308.225 71.2178 304.191 75.2534 304.191 80.2319C304.191 85.2102 308.225 89.246 313.202 89.246Z" fill="#00ED64" stroke="black" stroke-linecap="round" stroke-linejoin="round"/>
<path d="M235.792 139.174V89.2456" stroke="black" stroke-linecap="round" stroke-linejoin="round"/>
<path d="M235.79 89.246C240.767 89.246 244.8 85.2102 244.8 80.2319C244.8 75.2534 240.767 71.2178 235.79 71.2178C230.813 71.2178 226.777 75.2534 226.777 80.2319C226.777 85.2102 230.813 89.246 235.79 89.246Z" fill="#00ED64" stroke="black" stroke-linecap="round" stroke-linejoin="round"/>
<path d="M274.322 279.87V355.415" stroke="black" stroke-linecap="round" stroke-linejoin="round"/>
<path d="M274.319 373.443C279.296 373.443 283.332 369.408 283.332 364.428C283.332 359.45 279.296 355.415 274.319 355.415C269.342 355.415 265.309 359.45 265.309 364.428C265.309 369.408 269.342 373.443 274.319 373.443Z" fill="#00ED64" stroke="black" stroke-linecap="round" stroke-linejoin="round"/>
<path d="M235.792 279.87V329.797" stroke="black" stroke-linecap="round" stroke-linejoin="round"/>
<path d="M235.79 347.816C240.767 347.816 244.8 343.78 244.8 338.802C244.8 333.824 240.767 329.787 235.79 329.787C230.813 329.787 226.777 333.824 226.777 338.802C226.777 343.78 230.813 347.816 235.79 347.816Z" fill="#00ED64" stroke="black" stroke-linecap="round" stroke-linejoin="round"/>
<path d="M313.205 279.87V329.797" stroke="black" stroke-linecap="round" stroke-linejoin="round"/>
<path d="M313.202 347.816C318.179 347.816 322.214 343.78 322.214 338.802C322.214 333.824 318.179 329.787 313.202 329.787C308.225 329.787 304.191 333.824 304.191 338.802C304.191 343.78 308.225 347.816 313.202 347.816Z" fill="#00ED64" stroke="black" stroke-linecap="round" stroke-linejoin="round"/>
<path d="M204.271 209.334H128.737" stroke="black" stroke-linecap="round" stroke-linejoin="round"/>
<path d="M119.738 218.347C124.715 218.347 128.75 214.311 128.75 209.333C128.75 204.355 124.715 200.32 119.738 200.32C114.761 200.32 110.727 204.355 110.727 209.333C110.727 214.311 114.761 218.347 119.738 218.347Z" fill="#00ED64" stroke="black" stroke-linecap="round" stroke-linejoin="round"/>
<path d="M204.274 170.805H154.36" stroke="black" stroke-linecap="round" stroke-linejoin="round"/>
<path d="M145.349 179.818C150.326 179.818 154.361 175.783 154.361 170.805C154.361 165.825 150.326 161.79 145.349 161.79C140.372 161.79 136.338 165.825 136.338 170.805C136.338 175.783 140.372 179.818 145.349 179.818Z" fill="#00ED64" stroke="black" stroke-linecap="round" stroke-linejoin="round"/>
<path d="M204.274 248.239H154.36" stroke="black" stroke-linecap="round" stroke-linejoin="round"/>
<path d="M145.349 257.252C150.326 257.252 154.361 253.217 154.361 248.239C154.361 243.26 150.326 239.225 145.349 239.225C140.372 239.225 136.338 243.26 136.338 248.239C136.338 253.217 140.372 257.252 145.349 257.252Z" fill="#00ED64" stroke="black" stroke-linecap="round" stroke-linejoin="round"/>
<mask id="mask1_601_750" style="mask-type:luminance" maskUnits="userSpaceOnUse" x="204" y="139" width="142" height="141">
<path d="M333.134 139.173H216.222C209.665 139.173 204.351 144.49 204.351 151.048V267.994C204.351 274.552 209.665 279.869 216.222 279.869H333.134C339.691 279.869 345.005 274.552 345.005 267.994V151.048C345.005 144.49 339.691 139.173 333.134 139.173Z" fill="white"/>
</mask>
<g mask="url(#mask1_601_750)">
<path d="M449.634 329.916L450.261 403.724C392.522 432.267 316.232 403.724 316.232 403.724C316.232 403.724 318.564 344.047 315.541 313.41C308.667 243.531 276.365 254.985 276.365 164.228C276.365 97.5352 326.561 54.2458 395.976 57.5384C465.391 60.8311 525.191 88.5319 525.191 205.9L545.35 249.609C548.039 255.427 544.553 262.229 538.261 263.438L525.191 265.965L515.478 328.501C514.053 337.688 505.052 343.669 496.03 341.434L390.472 315.213" fill="black"/>
</g>
<path d="M488.466 336.577L489.093 406.704C431.354 435.247 355.064 406.704 355.064 406.704C355.064 406.704 357.395 350.709 354.374 320.06C347.499 250.182 315.197 261.636 315.197 170.879C315.197 104.186 365.393 60.8965 434.807 64.189C504.223 67.4816 564.022 95.1824 564.022 212.55L584.182 256.26C586.869 262.079 583.383 268.879 577.091 270.088L564.022 272.615L554.309 335.153C552.885 344.339 543.884 350.319 534.862 348.085L429.304 321.864" fill="black"/>
<path d="M488.466 336.577L489.093 406.704C431.354 435.247 355.064 406.704 355.064 406.704C355.064 406.704 357.395 350.709 354.374 320.06C347.499 250.182 315.197 261.636 315.197 170.879C315.197 104.186 365.393 60.8965 434.807 64.189C504.223 67.4816 564.022 95.1824 564.022 212.55L584.182 256.26C586.869 262.079 583.383 268.879 577.091 270.088L564.022 272.615L554.309 335.153C552.885 344.339 543.884 350.319 534.862 348.085L429.304 321.864" stroke="black" stroke-miterlimit="10"/>
<path d="M476.109 329.918L476.735 403.725C418.997 432.269 342.706 403.725 342.706 403.725C342.706 403.725 345.037 344.048 342.016 313.411C335.141 243.533 302.84 254.987 302.84 164.23C302.84 97.5365 353.035 54.2473 422.449 57.5398C491.865 60.8324 551.666 88.5333 551.666 205.9L571.825 249.611C574.512 255.429 571.026 262.23 564.735 263.439L551.666 265.966L541.952 328.503C540.527 337.69 531.527 343.671 522.504 341.436L416.946 315.215" fill="#E3FCF7"/>
<path d="M476.109 329.918L476.735 403.725C418.997 432.269 342.706 403.725 342.706 403.725C342.706 403.725 345.037 344.048 342.016 313.411C335.141 243.533 302.84 254.987 302.84 164.23C302.84 97.5365 353.035 54.2473 422.449 57.5398C491.865 60.8324 551.666 88.5333 551.666 205.9L571.825 249.611C574.512 255.429 571.026 262.23 564.735 263.439L551.666 265.966L541.952 328.503C540.527 337.69 531.527 343.671 522.504 341.436L416.946 315.215" stroke="black" stroke-miterlimit="10"/>
<path d="M503.55 192.729V192.687C503.756 187.602 503.42 182.507 502.525 177.509V177.465L507.748 171.453L511.623 166.993L511.677 166.93L502.352 147.476L489.402 147.94L489.359 147.897C486.262 143.903 482.742 140.254 478.847 137.037L478.805 136.994L479.063 122.971L459.431 114.032L457.274 115.975L449.751 122.755L449.655 122.852H449.611C444.928 121.859 440.157 121.362 435.376 121.351H434.901L425.901 110.232L405.125 115.997L403.236 129.383L403.194 129.426C398.963 131.65 394.991 134.338 391.354 137.426L391.312 137.469L376.914 134.716L364.73 152.507L372.036 164.166V164.208C370.278 168.538 368.972 173.039 368.14 177.627V177.67L355.146 184.893L357.24 206.354L370.385 210.651V210.693C371.809 215.119 373.688 219.395 375.987 223.443L376.029 223.485L370.677 237.423L386.066 252.525L398.779 247.398L398.823 247.441C401.466 249.125 404.23 250.625 407.078 251.931C408.492 252.536 409.982 253.174 411.483 253.734H411.525L416.317 267.638L437.815 269.226L444.097 257.383H444.139C445.348 257.222 446.557 257.027 447.744 256.8C449.082 256.542 450.399 256.271 451.747 255.926C452.191 255.818 452.632 255.699 453.064 255.581C454.834 255.116 456.572 254.577 458.288 253.961H458.331L470.634 261.377L476.538 257.134L488.161 248.79L485.431 235.976L485.473 235.933C488.873 232.241 491.852 228.182 494.366 223.831L494.41 223.788L508.181 221.575H508.31L513.696 200.708L503.529 192.741L503.55 192.729ZM434.416 232.144C426.04 232.144 417.849 229.661 410.878 225.008C403.906 220.356 398.477 213.727 395.272 205.987C392.067 198.246 391.225 189.719 392.865 181.503C394.496 173.276 398.531 165.731 404.457 159.804C410.381 153.878 417.924 149.84 426.149 148.21C434.362 146.58 442.888 147.411 450.626 150.617C458.363 153.824 464.979 159.254 469.641 166.228C474.293 173.201 476.786 181.394 476.786 189.772C476.786 201.01 472.318 211.794 464.375 219.74C456.432 227.685 445.65 232.154 434.416 232.154V232.144Z" fill="black"/>
<path d="M493.407 181.341V181.297C493.622 176.225 493.276 171.139 492.391 166.141V166.098L497.605 160.096L501.479 155.637L501.533 155.583L492.208 136.119L479.258 136.594L479.214 136.551C476.118 132.557 472.6 128.908 468.703 125.691L468.66 125.648L468.919 111.625L449.299 102.686L447.14 104.629L439.618 111.376L439.521 111.473H439.477C434.794 110.491 430.023 109.994 425.232 110.005H424.757L415.756 98.886L394.981 104.651L393.094 118.037L393.05 118.08C388.82 120.304 384.847 122.992 381.2 126.08L381.156 126.123L366.75 123.338L354.565 141.139L361.872 152.798V152.841C360.122 157.17 358.817 161.671 357.986 166.26V166.303L344.992 173.525L347.086 194.986L360.253 199.261V199.304C361.677 203.73 363.554 208.005 365.853 212.053L365.897 212.097L360.555 226.034L375.944 241.137L388.657 236.009L388.701 236.051C391.356 237.735 394.13 239.236 396.989 240.543C398.403 241.147 399.893 241.783 401.392 242.334H401.436L406.205 256.24L427.704 257.826L433.984 245.972H434.028C435.237 245.811 436.445 245.627 437.643 245.4C438.982 245.141 440.287 244.871 441.647 244.515C442.09 244.408 442.532 244.288 442.963 244.169C444.723 243.706 446.461 243.155 448.187 242.551H448.231L460.533 249.967L466.437 245.724L478.027 237.369L475.287 224.577L475.33 224.533C478.729 220.831 481.708 216.771 484.222 212.431L484.265 212.389L498.037 210.186H498.166L503.551 189.319L493.385 181.352L493.407 181.341ZM424.282 220.755C415.908 220.755 407.716 218.272 400.744 213.62C393.772 208.965 388.345 202.338 385.139 194.598C381.934 186.858 381.092 178.329 382.733 170.113C384.362 161.888 388.398 154.342 394.323 148.415C400.249 142.489 407.792 138.451 416.015 136.821C424.228 135.191 432.754 136.022 440.493 139.228C448.231 142.434 454.857 147.865 459.509 154.838C464.16 161.812 466.652 170.006 466.652 178.382C466.652 189.621 462.185 200.406 454.241 208.351C446.298 216.296 435.518 220.765 424.282 220.765V220.755Z" fill="#006CFA" stroke="black" stroke-linecap="round" stroke-linejoin="round"/>
<path d="M475.86 366.331L422.451 316.585L476.109 329.918" fill="black"/>
<path d="M343.579 361.094C343.579 361.094 404.415 402.008 476.722 399.471L476.755 403.746C476.755 403.746 448.469 419.292 406.087 415.912C363.707 412.534 342.716 403.746 342.716 403.746" fill="black"/>
</g>
</svg>
