<?xml version="1.0" encoding="utf-8"?>
<svg xmlns="http://www.w3.org/2000/svg" width="66" height="66" viewBox="0 0 66 66" fill="none">
<path d="M12.7 10H3C1.9 10 1 10.895 1 11.989V19.9448C1 24.4199 4.7 28 9.1 28H14" stroke="white" stroke-miterlimit="10"/>
<path d="M53.3 10H63C64.1 10 65 10.895 65 11.989V19.9448C65 24.4199 61.3 28 56.9 28H52" stroke="white" stroke-miterlimit="10"/>
<path d="M33 43V54M17.9883 65C16.398 65 15.404 63.1667 16.398 61.9123C20.0756 57.0877 25.9399 54 32.5 54C39.0601 54 44.9244 57.0877 48.602 61.9123C49.596 63.1667 48.602 65 47.0117 65H17.9883Z" stroke="white" stroke-miterlimit="10"/>
<path fill-rule="evenodd" clip-rule="evenodd" d="M13 23.3674C13 34.2093 21.933 43 32.9504 43C43.9677 43 52.9007 34.1116 53 23.3674V2.95349C53 1.87907 52.1067 1 51.0149 1H14.9851C13.8933 1 13 1.87907 13 2.95349V23.3674ZM28.3453 27.9655L32.8792 25.4558C32.957 25.4012 33.0347 25.4012 33.1124 25.4558L37.6204 27.9655C37.8277 28.0474 38.035 27.8837 38.009 27.6655L37.1541 22.3459C37.1541 22.2641 37.18 22.1549 37.2318 22.1004L40.9367 18.3085C41.0662 18.1448 40.9885 17.872 40.7812 17.8447L35.7032 17.0809C35.5996 17.0809 35.5219 17.0263 35.496 16.9445L33.2679 12.1432C33.1642 11.9523 32.9051 11.9523 32.8015 12.1432L30.5216 16.9718C30.4698 17.0263 30.392 17.1082 30.3143 17.1082L25.2363 17.872C25.0031 17.8993 24.9254 18.1721 25.0809 18.3358L28.7339 22.1004C28.7857 22.1549 28.8376 22.2641 28.8116 22.3459L27.9567 27.6655C27.9308 27.911 28.1639 28.0747 28.3453 27.9655Z" fill="#00ED64"/>
<path d="M53 23.3674L53.5 23.3721V23.3674H53ZM32.8792 25.4558L33.1214 25.8932L33.1447 25.8803L33.1665 25.865L32.8792 25.4558ZM28.3453 27.9655L28.1032 27.5281L28.0953 27.5325L28.0875 27.5371L28.3453 27.9655ZM33.1124 25.4558L32.8251 25.865L32.8464 25.88L32.8692 25.8927L33.1124 25.4558ZM37.6204 27.9655L37.3772 28.4024L37.4061 28.4185L37.4368 28.4306L37.6204 27.9655ZM38.009 27.6655L38.5056 27.6065L38.5043 27.5963L38.5027 27.5861L38.009 27.6655ZM37.1541 22.3459H36.6541V22.3858L36.6604 22.4252L37.1541 22.3459ZM37.2318 22.1004L36.8741 21.7509L36.8693 21.7561L37.2318 22.1004ZM40.9367 18.3085L41.2943 18.6579L41.3125 18.6392L41.3287 18.6188L40.9367 18.3085ZM40.7812 17.8447L40.7068 18.3392L40.716 18.3404L40.7812 17.8447ZM35.7032 17.0809L35.7776 16.5864L35.7406 16.5809H35.7032V17.0809ZM35.496 16.9445L35.9726 16.7936L35.963 16.763L35.9495 16.734L35.496 16.9445ZM33.2679 12.1432L33.7214 11.9327L33.7148 11.9185L33.7073 11.9047L33.2679 12.1432ZM32.8015 12.1432L32.3621 11.9047L32.3554 11.9171L32.3494 11.9297L32.8015 12.1432ZM30.5216 16.9718L30.8841 17.3161L30.9394 17.2579L30.9737 17.1852L30.5216 16.9718ZM30.3143 17.1082V16.6082H30.2769L30.24 16.6137L30.3143 17.1082ZM25.2363 17.872L25.2944 18.3686L25.3026 18.3677L25.3107 18.3664L25.2363 17.872ZM25.0809 18.3358L24.7183 18.6801L24.722 18.6839L25.0809 18.3358ZM28.7339 22.1004L29.0965 21.756L29.0928 21.7522L28.7339 22.1004ZM28.8116 22.3459L28.335 22.195L28.3238 22.2301L28.318 22.2666L28.8116 22.3459ZM27.9567 27.6655L27.463 27.5861L27.4609 27.5995L27.4594 27.613L27.9567 27.6655ZM32.9504 42.5C22.2015 42.5 13.5 33.9256 13.5 23.3674H12.5C12.5 34.493 21.6645 43.5 32.9504 43.5V42.5ZM52.5 23.3628C52.4033 33.8295 43.6966 42.5 32.9504 42.5V43.5C44.2389 43.5 53.3982 34.3938 53.5 23.3721L52.5 23.3628ZM52.5 2.95349V23.3674H53.5V2.95349H52.5ZM51.0149 1.5C51.8382 1.5 52.5 2.16275 52.5 2.95349H53.5C53.5 1.59539 52.3752 0.5 51.0149 0.5V1.5ZM14.9851 1.5H51.0149V0.5H14.9851V1.5ZM13.5 2.95349C13.5 2.16275 14.1618 1.5 14.9851 1.5V0.5C13.6248 0.5 12.5 1.59539 12.5 2.95349H13.5ZM13.5 23.3674V2.95349H12.5V23.3674H13.5ZM32.6371 25.0183L28.1032 27.5281L28.5875 28.403L33.1214 25.8932L32.6371 25.0183ZM33.3997 25.0466C33.2956 24.9735 33.1584 24.9149 32.9958 24.9149C32.8332 24.9149 32.696 24.9735 32.592 25.0466L33.1665 25.865C33.1402 25.8835 33.0807 25.9149 32.9958 25.9149C32.9109 25.9149 32.8515 25.8835 32.8251 25.865L33.3997 25.0466ZM37.8636 27.5287L33.3556 25.0189L32.8692 25.8927L37.3772 28.4024L37.8636 27.5287ZM37.5125 27.7244C37.5043 27.6548 37.5352 27.5801 37.5951 27.5335C37.6561 27.4859 37.7384 27.4746 37.8041 27.5005L37.4368 28.4306C38.0019 28.6538 38.5753 28.1942 38.5056 27.6065L37.5125 27.7244ZM36.6604 22.4252L37.5154 27.7448L38.5027 27.5861L37.6477 22.2666L36.6604 22.4252ZM36.8693 21.7561C36.7662 21.8646 36.7175 21.9907 36.6936 22.0727C36.6674 22.1624 36.6541 22.2574 36.6541 22.3459H37.6541C37.6541 22.351 37.6537 22.3526 37.6539 22.3516C37.654 22.3508 37.6541 22.351 37.6534 22.3531C37.6529 22.3548 37.6505 22.3631 37.6438 22.3762C37.6377 22.3883 37.623 22.4146 37.5944 22.4447L36.8693 21.7561ZM40.579 17.959L36.8742 21.7509L37.5894 22.4498L41.2943 18.6579L40.579 17.959ZM40.716 18.3404C40.5887 18.3237 40.5253 18.2293 40.5086 18.1763C40.4936 18.1292 40.4946 18.0614 40.5446 17.9982L41.3287 18.6188C41.5083 18.3919 41.5352 18.1058 41.4619 17.8745C41.3869 17.6374 41.181 17.393 40.8465 17.349L40.716 18.3404ZM35.6288 17.5753L40.7068 18.3392L40.8556 17.3503L35.7776 16.5864L35.6288 17.5753ZM35.0193 17.0954C35.1211 17.417 35.4171 17.5809 35.7032 17.5809V16.5809C35.7394 16.5809 35.7933 16.5908 35.8488 16.628C35.9055 16.666 35.9507 16.7243 35.9726 16.7936L35.0193 17.0954ZM32.8143 12.3537L35.0424 17.155L35.9495 16.734L33.7214 11.9327L32.8143 12.3537ZM33.241 12.3817C33.2038 12.4501 33.1242 12.5 33.0347 12.5C32.9451 12.5 32.8655 12.4501 32.8284 12.3817L33.7073 11.9047C33.4144 11.3651 32.6549 11.3651 32.3621 11.9047L33.241 12.3817ZM30.9737 17.1852L33.2536 12.3567L32.3494 11.9297L30.0695 16.7583L30.9737 17.1852ZM30.3143 17.6082C30.5202 17.6082 30.6689 17.5055 30.7317 17.4574C30.8037 17.4022 30.8624 17.339 30.8841 17.3161L30.159 16.6274C30.1453 16.6419 30.1373 16.6502 30.1298 16.6575C30.1224 16.6647 30.1207 16.6657 30.1237 16.6634C30.1259 16.6617 30.1409 16.6503 30.1678 16.6382C30.1949 16.626 30.2458 16.6082 30.3143 16.6082V17.6082ZM25.3107 18.3664L30.3887 17.6026L30.24 16.6137L25.1619 17.3776L25.3107 18.3664ZM25.4434 17.9914C25.4948 18.0456 25.5137 18.1274 25.4895 18.2036C25.4626 18.2887 25.3839 18.3581 25.2944 18.3686L25.1782 17.3754C24.8556 17.4131 24.6214 17.6327 24.5362 17.9018C24.4538 18.1621 24.5115 18.4623 24.7183 18.6801L25.4434 17.9914ZM29.0928 21.7522L25.4397 17.9876L24.722 18.6839L28.3751 22.4486L29.0928 21.7522ZM29.2883 22.4968C29.3476 22.3097 29.3077 22.1404 29.2716 22.0414C29.2332 21.9364 29.1722 21.8358 29.0965 21.7561L28.3714 22.4447C28.3475 22.4196 28.3382 22.4008 28.3323 22.3845C28.3284 22.3738 28.3223 22.3539 28.3197 22.3253C28.3172 22.2968 28.3174 22.2504 28.335 22.195L29.2883 22.4968ZM28.4503 27.7448L29.3053 22.4252L28.318 22.2666L27.463 27.5861L28.4503 27.7448ZM28.0875 27.5371C28.1923 27.4741 28.3082 27.5 28.3722 27.5477C28.4362 27.5954 28.4595 27.6655 28.4539 27.7179L27.4594 27.613C27.428 27.911 27.5549 28.1856 27.7743 28.3493C27.9938 28.513 28.317 28.5661 28.6031 28.394L28.0875 27.5371Z" fill="white"/>
</svg>